<?xml version="1.0" standalone="no"?>
<!DOCTYPE svg PUBLIC "-//W3C//DTD SVG 20010904//EN"
 "http://www.w3.org/TR/2001/REC-SVG-20010904/DTD/svg10.dtd">
<svg version="1.0" xmlns="http://www.w3.org/2000/svg"
 width="16.000000pt" height="16.000000pt" viewBox="0 0 16.000000 16.000000"
 preserveAspectRatio="xMidYMid meet">
<metadata>
Created by potrace 1.11, written by Peter Selinger 2001-2013
</metadata>
<g transform="translate(0.000000,16.000000) scale(0.003125,-0.003125)"
fill="#000000" stroke="none">
<path d="M804 4580 c-64 -9 -146 -53 -186 -99 -17 -19 -43 -60 -57 -91 l-26
-55 0 -1780 0 -1780 22 -47 c30 -66 96 -133 162 -165 l56 -28 1785 0 1785 0
56 28 c66 32 132 99 162 165 l22 47 3 1754 c3 1933 6 1823 -59 1918 -17 25
-51 59 -76 77 -94 66 56 61 -1858 62 -957 1 -1763 -2 -1791 -6z m874 -1325
c130 -68 372 -195 537 -282 l300 -158 0 -88 0 -89 -545 -318 -545 -317 -3 140
c-2 104 1 144 10 152 7 7 173 101 368 210 195 109 361 202 368 208 14 11 -57
49 -520 283 l-228 115 0 135 c0 83 4 134 10 134 6 0 117 -56 248 -125z m2020
-1397 l3 -118 -561 0 -560 0 0 113 c0 63 3 117 7 120 3 4 254 6 557 5 l551 -3
3 -117z"/>
</g>
</svg>
